<?xml version="1.0" encoding="iso-8859-1"?>
<!-- Generator: Adobe Illustrator 19.0.0, SVG Export Plug-In . SVG Version: 6.00 Build 0)  -->
<svg version="1.1" id="Capa_1" xmlns="http://www.w3.org/2000/svg" xmlns:xlink="http://www.w3.org/1999/xlink" x="0px" y="0px"
	 viewBox="0 0 512.001 512.001" style="enable-background:new 0 0 512.001 512.001;" xml:space="preserve">
<g>
	<path style="fill:#F23366;" d="M264.023,0.022c0,187.158,125.963,253.166,125.963,253.166l-8.044,46.464l-51.359,176.284
		c-2.485,8.532,6.219,16.028,14.289,12.305l37.476-17.298c6.865-3.168,14.702,1.846,14.702,9.406v12.028
		c0,8.323,9.319,13.249,16.196,8.56l21.842-14.891c6.877-4.689,16.196,0.236,16.196,8.56v7.014c0,5.722,4.638,10.36,10.36,10.36
		h50.313V10.382c0-5.722-4.638-10.36-10.36-10.36L264.023,0.022z"/>
	<path style="fill:#F23366;" d="M10.36,0.022C4.638,0.022,0,4.66,0,10.382v491.237c0,5.722,4.638,10.36,10.36,10.36h39.952
		c5.722,0,10.36-4.638,10.36-10.36v-7.014c0-8.323,9.319-13.249,16.196-8.56l21.842,14.891c6.877,4.689,16.196-0.236,16.196-8.56
		v-12.028c0-7.561,7.838-12.575,14.702-9.406l37.476,17.298c8.069,3.725,16.774-3.772,14.289-12.305l-51.359-176.284v-46.464
		c0,0,125.963-66.009,125.963-253.166H10.36V0.022z"/>
</g>
<path style="opacity:0.1;enable-background:new    ;" d="M130.016,299.651v-46.464c0,0,125.963-66.009,125.963-253.166H116.616
	C117.164,20.605,115.673,149.153,0,252.129v249.49c0,5.722,4.638,10.36,10.36,10.36h39.952c5.722,0,10.36-4.638,10.36-10.36v-7.014
	c0-8.323,9.319-13.249,16.196-8.56l21.842,14.891c6.877,4.689,16.196-0.236,16.196-8.56v-12.028c0-7.561,7.838-12.575,14.702-9.406
	l37.476,17.298c8.069,3.725,16.774-3.772,14.289-12.305L130.016,299.651z"/>
<path style="opacity:0.1;enable-background:new    ;" d="M381.984,299.651l8.001-46.464c0,0-125.963-66.009-125.963-253.166h131.362
	c-0.549,20.584,0.942,149.131,116.616,252.109v249.49c0,5.722-4.638,10.36-10.36,10.36h-39.952c-5.722,0-10.36-4.638-10.36-10.36
	v-7.014c0-8.323-9.319-13.249-16.196-8.56l-21.842,14.891c-6.877,4.689-16.196-0.236-16.196-8.56v-12.028
	c0-7.561-7.838-12.575-14.702-9.406l-37.476,17.298c-8.069,3.725-16.774-3.772-14.289-12.305L381.984,299.651z"/>
<g style="opacity:0.2;">
	<path d="M462.31,384.06c-4.292,0-7.77-3.479-7.77-7.77v-73.287c0-4.291,3.478-7.77,7.77-7.77c4.292,0,7.77,3.479,7.77,7.77v73.287
		C470.08,380.581,466.601,384.06,462.31,384.06z"/>
</g>
<g style="opacity:0.2;">
	<path d="M423.571,384.06c-4.292,0-7.77-3.479-7.77-7.77v-73.287c0-4.291,3.478-7.77,7.77-7.77c4.292,0,7.77,3.479,7.77,7.77v73.287
		C431.341,380.581,427.863,384.06,423.571,384.06z"/>
</g>
<g style="opacity:0.2;">
	<path d="M90.115,384.06c-4.292,0-7.77-3.479-7.77-7.77v-80.432c0-4.291,3.478-7.77,7.77-7.77c4.292,0,7.77,3.479,7.77,7.77v80.432
		C97.885,380.581,94.406,384.06,90.115,384.06z"/>
</g>
<g style="opacity:0.2;">
	<path d="M51.376,384.06c-4.292,0-7.77-3.479-7.77-7.77v-80.432c0-4.291,3.478-7.77,7.77-7.77s7.77,3.479,7.77,7.77v80.432
		C59.146,380.581,55.668,384.06,51.376,384.06z"/>
</g>
<g style="opacity:0.2;">
	<path d="M86.563,253.187L54.48,270.553h75.858v-17.366c0,0,125.963-66.009,125.963-253.166h-58.097
		C198.382,20.87,194.616,143.514,86.563,253.187z"/>
</g>
<g style="opacity:0.2;">
	<path d="M433.761,253.187l32.084,17.366h-75.858v-17.366c0,0-125.963-66.009-125.963-253.166h58.099
		C321.942,20.87,325.708,143.514,433.761,253.187z"/>
</g>
<g>
	<path style="fill:#98D4AD;" d="M142.887,299.651H0v-46.464h142.887c5.722,0,10.36,4.638,10.36,10.36v25.743
		C153.248,295.013,148.609,299.651,142.887,299.651z"/>
	<path style="fill:#98D4AD;" d="M369.07,299.651h142.887v-46.464H369.07c-5.722,0-10.36,4.638-10.36,10.36v25.743
		C358.71,295.013,363.348,299.651,369.07,299.651z"/>
</g>
<path style="opacity:0.2;enable-background:new    ;" d="M496.072,253.187v30.577H358.71v5.525c0,5.722,4.638,10.36,10.36,10.36
	h142.887v-46.464h-15.885V253.187z"/>
<path style="opacity:0.2;enable-background:new    ;" d="M15.885,253.187v30.577h137.362v5.525c0,5.722-4.638,10.36-10.36,10.36H0
	v-46.464h15.885V253.187z"/>
<g>
</g>
<g>
</g>
<g>
</g>
<g>
</g>
<g>
</g>
<g>
</g>
<g>
</g>
<g>
</g>
<g>
</g>
<g>
</g>
<g>
</g>
<g>
</g>
<g>
</g>
<g>
</g>
<g>
</g>
</svg>
